<svg id="Layer_1" data-name="Layer 1" xmlns="http://www.w3.org/2000/svg" viewBox="0 0 347.24 310.47">
    <defs>
        <style>
            .cls-1,.cls-4{fill:#f68720;}.cls-2{fill:#fff;}.cls-3{fill:#e82629;}.cls-4{font-size:94.53px;font-family:ArialRoundedMTBold,
            Arial Rounded MT Bold;letter-spacing:-0.05em;}.cls-5{letter-spacing:-0.03em;}
        </style>
    </defs>
    <title>Logo</title>
    <path class="cls-1"
          d="M549.94,318.78l-3.77,6.73a4.27,4.27,0,0,1-5.59,1.74c-3-1.46-6.12-2.86-9.2-4.19l7.25-14.94q4.88,2.29,9.62,4.82A4.26,4.26,0,0,1,549.94,318.78Z"
          transform="translate(-247.19 -145.15)"/>
    <path class="cls-1" d="M478.16,288.61l-3.34,17.69q-7.23-1.21-14.63-2l2.13-18Q470.31,287.16,478.16,288.61Z"
          transform="translate(-247.19 -145.15)"/>
    <path class="cls-1" d="M390.86,306.68c-4.88.84-9.72,1.86-14.48,3l-4.5-16.95q7.67-2,15.51-3.54Z"
          transform="translate(-247.19 -145.15)"/>
    <path class="cls-1"
          d="M315.68,333.1c-2,1.12-4,2.25-6,3.41a4.27,4.27,0,0,1-5.69-1.27l-3.66-5.38a4.27,4.27,0,0,1,1.17-6q3.17-2.07,6.41-4Z"
          transform="translate(-247.19 -145.15)"/>
    <path class="cls-1"
          d="M593.07,235.2a4.24,4.24,0,0,1,.81,5.19l-1,1.75-2.79,5a4.24,4.24,0,0,1-6.4,1.23c-3.79-3.14-7.66-6.14-11.64-9l7.57-15.6q6.89,5.49,13.42,11.45Z"
          transform="translate(-247.19 -145.15)"/>
    <path class="cls-1" d="M494.62,201.71l3.89-20.54a235.14,235.14,0,0,0-23.11-5.8l-2.51,21.3Z"
          transform="translate(-247.19 -145.15)"/>
    <path class="cls-1"
          d="M268.34,252.67q-4.56,3.95-8.92,8.16a4.28,4.28,0,0,1-6.52-.63l-5-7.3a4.3,4.3,0,0,1,.41-5.34q5.19-5.51,10.7-10.68Z"
          transform="translate(-247.19 -145.15)"/>
    <path class="cls-1" d="M369.62,199.84c-7,1.74-13.95,3.77-20.73,6.14l-5.52-20.79c7.17-2.59,14.53-4.87,22-6.8Z"
          transform="translate(-247.19 -145.15)"/>
    <path class="cls-2"
          d="M583.74,205.09a6,6,0,0,1,1.44,7.2l-5.56,11.44-48.25,99.32-6.69,13.76a6.07,6.07,0,0,1-7.58,3,243.29,243.29,0,0,0-40.42-11,6,6,0,0,1-4.79-7.06l2.93-15.43,23.7-125.14,3-15.75a6.06,6.06,0,0,1,8.12-4.52A246.65,246.65,0,0,1,583.74,205.09Z"
          transform="translate(-247.19 -145.15)"/>
    <path class="cls-2"
          d="M375.78,331.42A243.64,243.64,0,0,0,330.24,347a6.07,6.07,0,0,1-7.78-2.4l-6.79-11.52-56.62-96.23-8.61-14.65a6,6,0,0,1,.95-7.37,245.44,245.44,0,0,1,79-51.72,6.08,6.08,0,0,1,8.17,4l4.77,18,33,124.49,3.8,14.33A6,6,0,0,1,375.78,331.42Z"
          transform="translate(-247.19 -145.15)"/>
    <path class="cls-3"
          d="M472.87,150.23a6,6,0,0,1,4.71,6.62l-2.19,18.51L460.2,304.3l-1.89,16a6,6,0,0,1-6.4,5.32,249.56,249.56,0,0,0-34.51-.28q-8.52.52-16.85,1.61a6,6,0,0,1-6.64-4.82l-3.06-15.41L365.37,178.39l-3.87-19.55a6,6,0,0,1,4.47-7,248,248,0,0,1,106.9-1.57Z"
          transform="translate(-247.19 -145.15)"/>
    <text class="cls-4" transform="translate(52.09 290.53) scale(0.95 1)">timbila</text>
</svg>
